# xmcd
#
# Track frame offsets:
#	151
#	23554
#	49659
#	64114
#	81049
#	101572
#	123321
#	142222
#
# Disc length: 2141 seconds
#
# Revision: 1
# Processed by: cddbd v1.5.2PL0 Copyright (c) Steve Scherf et al.
# Submitted via: audiograbber 1.83.01
#
DISCID=66085b08
DTITLE=Татьяна Шилова - На світанні
DYEAR=1900
DGENRE=Gospel
TTITLE0=На світанні
TTITLE1=Я - дитя Твоє
TTITLE2=Благання
TTITLE3=О Ісус
TTITLE4=Із ран Спасителя
TTITLE5=Вірю, Боже
TTITLE6=Друзі
TTITLE7=Небесний край
EXTD=
EXTT0=
EXTT1=
EXTT2=
EXTT3=
EXTT4=
EXTT5=
EXTT6=
EXTT7=
PLAYORDER=
